<svg id="visual" viewBox="0 0 900 600" width="900" height="600" xmlns="http://www.w3.org/2000/svg" xmlns:xlink="http://www.w3.org/1999/xlink" version="1.1"><path d="M0 97L13.7 89C27.3 81 54.7 65 82 65C109.3 65 136.7 81 163.8 92C191 103 218 109 245.2 108C272.3 107 299.7 99 327 100C354.3 101 381.7 111 409 112C436.3 113 463.7 105 491 100C518.3 95 545.7 93 573 92C600.3 91 627.7 91 654.8 85C682 79 709 67 736.2 75C763.3 83 790.7 111 818 112C845.3 113 872.7 87 886.3 74L900 61L900 0L886.3 0C872.7 0 845.3 0 818 0C790.7 0 763.3 0 736.2 0C709 0 682 0 654.8 0C627.7 0 600.3 0 573 0C545.7 0 518.3 0 491 0C463.7 0 436.3 0 409 0C381.7 0 354.3 0 327 0C299.7 0 272.3 0 245.2 0C218 0 191 0 163.8 0C136.7 0 109.3 0 82 0C54.7 0 27.3 0 13.7 0L0 0Z" fill="#839cc8"></path><path d="M0 151L13.7 155C27.3 159 54.7 167 82 171C109.3 175 136.7 175 163.8 180C191 185 218 195 245.2 192C272.3 189 299.7 173 327 178C354.3 183 381.7 209 409 212C436.3 215 463.7 195 491 185C518.3 175 545.7 175 573 176C600.3 177 627.7 179 654.8 171C682 163 709 145 736.2 150C763.3 155 790.7 183 818 186C845.3 189 872.7 167 886.3 156L900 145L900 59L886.3 72C872.7 85 845.3 111 818 110C790.7 109 763.3 81 736.2 73C709 65 682 77 654.8 83C627.7 89 600.3 89 573 90C545.7 91 518.3 93 491 98C463.7 103 436.3 111 409 110C381.7 109 354.3 99 327 98C299.7 97 272.3 105 245.2 106C218 107 191 101 163.8 90C136.7 79 109.3 63 82 63C54.7 63 27.3 79 13.7 87L0 95Z" fill="#6988bc"></path><path d="M0 241L13.7 239C27.3 237 54.7 233 82 235C109.3 237 136.7 245 163.8 255C191 265 218 277 245.2 275C272.3 273 299.7 257 327 261C354.3 265 381.7 289 409 291C436.3 293 463.7 273 491 263C518.3 253 545.7 253 573 249C600.3 245 627.7 237 654.8 227C682 217 709 205 736.2 217C763.3 229 790.7 265 818 266C845.3 267 872.7 233 886.3 216L900 199L900 143L886.3 154C872.7 165 845.3 187 818 184C790.7 181 763.3 153 736.2 148C709 143 682 161 654.8 169C627.7 177 600.3 175 573 174C545.7 173 518.3 173 491 183C463.7 193 436.3 213 409 210C381.7 207 354.3 181 327 176C299.7 171 272.3 187 245.2 190C218 193 191 183 163.8 178C136.7 173 109.3 173 82 169C54.7 165 27.3 157 13.7 153L0 149Z" fill="#4d75b0"></path><path d="M0 343L13.7 351C27.3 359 54.7 375 82 381C109.3 387 136.7 383 163.8 390C191 397 218 415 245.2 421C272.3 427 299.7 421 327 436C354.3 451 381.7 487 409 482C436.3 477 463.7 431 491 429C518.3 427 545.7 469 573 464C600.3 459 627.7 407 654.8 375C682 343 709 331 736.2 341C763.3 351 790.7 383 818 407C845.3 431 872.7 447 886.3 455L900 463L900 197L886.3 214C872.7 231 845.3 265 818 264C790.7 263 763.3 227 736.2 215C709 203 682 215 654.8 225C627.7 235 600.3 243 573 247C545.7 251 518.3 251 491 261C463.7 271 436.3 291 409 289C381.7 287 354.3 263 327 259C299.7 255 272.3 271 245.2 273C218 275 191 263 163.8 253C136.7 243 109.3 235 82 233C54.7 231 27.3 235 13.7 237L0 239Z" fill="#426598"></path><path d="M0 601L13.7 601C27.3 601 54.7 601 82 601C109.3 601 136.7 601 163.8 601C191 601 218 601 245.2 601C272.3 601 299.7 601 327 601C354.3 601 381.7 601 409 601C436.3 601 463.7 601 491 601C518.3 601 545.7 601 573 601C600.3 601 627.7 601 654.8 601C682 601 709 601 736.2 601C763.3 601 790.7 601 818 601C845.3 601 872.7 601 886.3 601L900 601L900 461L886.3 453C872.7 445 845.3 429 818 405C790.7 381 763.3 349 736.2 339C709 329 682 341 654.8 373C627.7 405 600.3 457 573 462C545.7 467 518.3 425 491 427C463.7 429 436.3 475 409 480C381.7 485 354.3 449 327 434C299.7 419 272.3 425 245.2 419C218 413 191 395 163.8 388C136.7 381 109.3 385 82 379C54.7 373 27.3 357 13.7 349L0 341Z" fill="#385681"></path></svg>